<mxfile host="app.diagrams.net" agent="5.0" version="24.7.17">
  <diagram name="TBSAR-ECU-System" id="TBSAR-ECU-System">
    <mxGraphModel dx="1422" dy="794" grid="1" gridSize="10" guides="1" tooltips="1" connect="1" arrows="1" fold="1" page="1" pageScale="1" pageWidth="1169" pageHeight="827" math="0" shadow="0">
      <root>
        <mxCell id="0" />
        <mxCell id="1" parent="0" />
        
        <!-- Main MCU Block - Even Larger to Contain Internal Blocks -->
        <mxCell id="MCU" value="LPC11C24 MCU - ARM Cortex-M0&#xa;48MHz, 32KB Flash, 8KB SRAM" style="rounded=1;whiteSpace=wrap;html=1;fontSize=16;fontStyle=1;fillColor=#e1d5e7;strokeColor=#9673a6;strokeWidth=4;" vertex="1" parent="1">
          <mxGeometry x="400" y="250" width="360" height="300" as="geometry" />
        </mxCell>
        
        <!-- Internal MCU Peripheral Blocks -->
        <mxCell id="GPIO_BLOCK" value="GPIO" style="rounded=1;whiteSpace=wrap;html=1;fontSize=12;fontStyle=1;fillColor=#fff2cc;strokeColor=#d6b656;strokeWidth=2;" vertex="1" parent="1">
          <mxGeometry x="420" y="290" width="80" height="40" as="geometry" />
        </mxCell>
        
        <mxCell id="ADC_BLOCK" value="ADC" style="rounded=1;whiteSpace=wrap;html=1;fontSize=12;fontStyle=1;fillColor=#fff2cc;strokeColor=#d6b656;strokeWidth=2;" vertex="1" parent="1">
          <mxGeometry x="420" y="350" width="80" height="40" as="geometry" />
        </mxCell>
        
        <mxCell id="UART_BLOCK" value="UART" style="rounded=1;whiteSpace=wrap;html=1;fontSize=12;fontStyle=1;fillColor=#fff2cc;strokeColor=#d6b656;strokeWidth=2;" vertex="1" parent="1">
          <mxGeometry x="420" y="410" width="80" height="40" as="geometry" />
        </mxCell>
        
        <mxCell id="I2C_BLOCK" value="I2C" style="rounded=1;whiteSpace=wrap;html=1;fontSize=12;fontStyle=1;fillColor=#fff2cc;strokeColor=#d6b656;strokeWidth=2;" vertex="1" parent="1">
          <mxGeometry x="660" y="320" width="80" height="40" as="geometry" />
        </mxCell>
        
        <mxCell id="SPI_BLOCK" value="SPI" style="rounded=1;whiteSpace=wrap;html=1;fontSize=12;fontStyle=1;fillColor=#fff2cc;strokeColor=#d6b656;strokeWidth=2;" vertex="1" parent="1">
          <mxGeometry x="660" y="380" width="80" height="40" as="geometry" />
        </mxCell>
        
        <!-- MCU Core Block -->
        <mxCell id="MCU_CORE" value="ARM&#xa;Cortex-M0&#xa;Core" style="rounded=1;whiteSpace=wrap;html=1;fontSize=14;fontStyle=1;fillColor=#f8cecc;strokeColor=#b85450;strokeWidth=2;" vertex="1" parent="1">
          <mxGeometry x="540" y="350" width="80" height="80" as="geometry" />
        </mxCell>
        
        <!-- RGB LED Module -->
        <mxCell id="RGB" value="RGB LED&#xa;Module" style="rounded=1;whiteSpace=wrap;html=1;fontSize=12;fontStyle=1;fillColor=#d5e8d4;strokeColor=#82b366;" vertex="1" parent="1">
          <mxGeometry x="180" y="180" width="120" height="60" as="geometry" />
        </mxCell>
        
        <!-- User Keys Module -->
        <mxCell id="UKEYS" value="5 User Keys&#xa;Module" style="rounded=1;whiteSpace=wrap;html=1;fontSize=12;fontStyle=1;fillColor=#d5e8d4;strokeColor=#82b366;" vertex="1" parent="1">
          <mxGeometry x="180" y="280" width="120" height="60" as="geometry" />
        </mxCell>
        
        <!-- Sensors Module -->
        <mxCell id="SENSORS" value="ADC Sensors&#xa;VPOT + LM35" style="rounded=1;whiteSpace=wrap;html=1;fontSize=12;fontStyle=1;fillColor=#d5e8d4;strokeColor=#82b366;" vertex="1" parent="1">
          <mxGeometry x="180" y="380" width="120" height="60" as="geometry" />
        </mxCell>
        
        <!-- UART Monitor Module -->
        <mxCell id="MONITOR" value="UART Monitor&#xa;USB Debug" style="rounded=1;whiteSpace=wrap;html=1;fontSize=12;fontStyle=1;fillColor=#d5e8d4;strokeColor=#82b366;" vertex="1" parent="1">
          <mxGeometry x="180" y="480" width="120" height="60" as="geometry" />
        </mxCell>
        
        <!-- EEPROM Module -->
        <mxCell id="EEPROM" value="I2C EEPROM&#xa;External Memory" style="rounded=1;whiteSpace=wrap;html=1;fontSize=12;fontStyle=1;fillColor=#d5e8d4;strokeColor=#82b366;" vertex="1" parent="1">
          <mxGeometry x="800" y="280" width="120" height="60" as="geometry" />
        </mxCell>
        
        <!-- DAC Module -->
        <mxCell id="DAC" value="SPI DAC&#xa;Analog Output" style="rounded=1;whiteSpace=wrap;html=1;fontSize=12;fontStyle=1;fillColor=#d5e8d4;strokeColor=#82b366;" vertex="1" parent="1">
          <mxGeometry x="800" y="380" width="120" height="60" as="geometry" />
        </mxCell>
        
        <!-- Direct Block Arrow Connections from ECU to MCU Peripherals -->
        
        <!-- RGB LED Connections -->
        <mxCell id="RGB_CONN" value="P2.10 (Red)&#xa;P1.2 (Green)&#xa;P1.10 (Blue)" style="shape=singleArrow;whiteSpace=wrap;html=1;arrowWidth=0.4;arrowSize=0.4;fontSize=9;fontStyle=1;fillColor=#d5e8d4;strokeColor=#82b366;direction=east;" edge="1" parent="1" source="RGB" target="GPIO_BLOCK">
          <mxGeometry width="120" height="30" relative="1" as="geometry">
            <mxPoint x="300" y="210" as="sourcePoint" />
            <mxPoint x="420" y="310" as="targetPoint" />
            <Array as="points">
              <mxPoint x="340" y="210" />
              <mxPoint x="340" y="310" />
            </Array>
          </mxGeometry>
        </mxCell>
        
        <!-- User Keys Connections -->
        <mxCell id="UKEYS_CONN" value="P0.3, P1.4&#xa;P2.6, P2.7, P2.8" style="shape=singleArrow;whiteSpace=wrap;html=1;arrowWidth=0.4;arrowSize=0.4;fontSize=9;fontStyle=1;fillColor=#d5e8d4;strokeColor=#82b366;direction=east;" edge="1" parent="1" source="UKEYS" target="GPIO_BLOCK">
          <mxGeometry width="120" height="30" relative="1" as="geometry">
            <mxPoint x="300" y="310" as="sourcePoint" />
            <mxPoint x="420" y="310" as="targetPoint" />
            <Array as="points">
              <mxPoint x="360" y="310" />
            </Array>
          </mxGeometry>
        </mxCell>
        
        <!-- Sensors Connections -->
        <mxCell id="SENSORS_CONN" value="P0.11 (VPOT)&#xa;P1.0 (LM35)" style="shape=singleArrow;whiteSpace=wrap;html=1;arrowWidth=0.4;arrowSize=0.4;fontSize=9;fontStyle=1;fillColor=#d5e8d4;strokeColor=#82b366;direction=east;" edge="1" parent="1" source="SENSORS" target="ADC_BLOCK">
          <mxGeometry width="120" height="30" relative="1" as="geometry">
            <mxPoint x="300" y="410" as="sourcePoint" />
            <mxPoint x="420" y="370" as="targetPoint" />
            <Array as="points">
              <mxPoint x="340" y="410" />
              <mxPoint x="340" y="370" />
            </Array>
          </mxGeometry>
        </mxCell>
        
        <!-- UART Monitor Connections -->
        <mxCell id="MONITOR_CONN" value="P1.6 (RXD)&#xa;P1.7 (TXD)&#xa;57600 baud" style="shape=doubleArrow;whiteSpace=wrap;html=1;arrowWidth=0.4;arrowSize=0.4;fontSize=9;fontStyle=1;fillColor=#d5e8d4;strokeColor=#82b366;direction=east;" edge="1" parent="1" source="MONITOR" target="UART_BLOCK">
          <mxGeometry width="120" height="30" relative="1" as="geometry">
            <mxPoint x="300" y="510" as="sourcePoint" />
            <mxPoint x="420" y="430" as="targetPoint" />
            <Array as="points">
              <mxPoint x="340" y="510" />
              <mxPoint x="340" y="430" />
            </Array>
          </mxGeometry>
        </mxCell>
        
        <!-- EEPROM Connections -->
        <mxCell id="EEPROM_CONN" value="P0.4 (SCL)&#xa;P0.5 (SDA)&#xa;400kHz" style="shape=doubleArrow;whiteSpace=wrap;html=1;arrowWidth=0.4;arrowSize=0.4;fontSize=9;fontStyle=1;fillColor=#d5e8d4;strokeColor=#82b366;direction=west;" edge="1" parent="1" source="I2C_BLOCK" target="EEPROM">
          <mxGeometry width="120" height="30" relative="1" as="geometry">
            <mxPoint x="740" y="340" as="sourcePoint" />
            <mxPoint x="800" y="310" as="targetPoint" />
            <Array as="points">
              <mxPoint x="820" y="340" />
              <mxPoint x="820" y="310" />
            </Array>
          </mxGeometry>
        </mxCell>
        
        <!-- DAC Connections -->
        <mxCell id="DAC_CONN" value="P2.11 (SCK)&#xa;P0.9 (MOSI)&#xa;P0.2 (CS), 1MHz" style="shape=singleArrow;whiteSpace=wrap;html=1;arrowWidth=0.4;arrowSize=0.4;fontSize=9;fontStyle=1;fillColor=#d5e8d4;strokeColor=#82b366;direction=west;" edge="1" parent="1" source="SPI_BLOCK" target="DAC">
          <mxGeometry width="120" height="30" relative="1" as="geometry">
            <mxPoint x="740" y="400" as="sourcePoint" />
            <mxPoint x="800" y="410" as="targetPoint" />
            <Array as="points">
              <mxPoint x="820" y="400" />
              <mxPoint x="820" y="410" />
            </Array>
          </mxGeometry>
        </mxCell>
        
        <!-- Connection Lines - Perfectly Aligned -->
        
        <!-- RGB LED Connections -->
        <mxCell id="RGB_CONN" value="P2.10 (Red)&#xa;P1.2 (Green)&#xa;P1.10 (Blue)" style="edgeStyle=orthogonalEdgeStyle;rounded=0;orthogonalLoop=1;jettySize=auto;html=1;exitX=1;exitY=0.5;exitDx=0;exitDy=0;entryX=0;entryY=0.3;entryDx=0;entryDy=0;fontSize=9;labelPosition=center;verticalLabelPosition=middle;align=center;verticalAlign=middle;strokeWidth=2;strokeColor=#82b366;" edge="1" parent="1" source="RGB" target="GPIO_BLOCK">
          <mxGeometry relative="1" as="geometry">
            <Array as="points">
              <mxPoint x="260" y="210" />
              <mxPoint x="260" y="325" />
            </Array>
          </mxGeometry>
        </mxCell>
        
        <!-- User Keys Connections -->
        <mxCell id="UKEYS_CONN" value="P0.3, P1.4&#xa;P2.6, P2.7, P2.8" style="edgeStyle=orthogonalEdgeStyle;rounded=0;orthogonalLoop=1;jettySize=auto;html=1;exitX=1;exitY=0.5;exitDx=0;exitDy=0;entryX=0;entryY=0.7;entryDx=0;entryDy=0;fontSize=9;labelPosition=center;verticalLabelPosition=middle;align=center;verticalAlign=middle;strokeWidth=2;strokeColor=#82b366;" edge="1" parent="1" source="UKEYS" target="GPIO_BLOCK">
          <mxGeometry relative="1" as="geometry">
            <Array as="points">
              <mxPoint x="260" y="310" />
              <mxPoint x="260" y="345" />
            </Array>
          </mxGeometry>
        </mxCell>
        
        <!-- Sensors Connections -->
        <mxCell id="SENSORS_CONN" value="P0.11 (VPOT)&#xa;P1.0 (LM35)" style="edgeStyle=orthogonalEdgeStyle;rounded=0;orthogonalLoop=1;jettySize=auto;html=1;exitX=1;exitY=0.5;exitDx=0;exitDy=0;entryX=0;entryY=0.5;entryDx=0;entryDy=0;fontSize=9;labelPosition=center;verticalLabelPosition=middle;align=center;verticalAlign=middle;strokeWidth=2;strokeColor=#82b366;" edge="1" parent="1" source="SENSORS" target="ADC_BLOCK">
          <mxGeometry relative="1" as="geometry">
            <Array as="points">
              <mxPoint x="260" y="410" />
              <mxPoint x="260" y="400" />
            </Array>
          </mxGeometry>
        </mxCell>
        
        <!-- UART Monitor Connections -->
        <mxCell id="MONITOR_CONN" value="P1.6 (RXD)&#xa;P1.7 (TXD)&#xa;57600 baud" style="edgeStyle=orthogonalEdgeStyle;rounded=0;orthogonalLoop=1;jettySize=auto;html=1;exitX=1;exitY=0.5;exitDx=0;exitDy=0;entryX=0;entryY=0.5;entryDx=0;entryDy=0;fontSize=9;labelPosition=center;verticalLabelPosition=middle;align=center;verticalAlign=middle;strokeWidth=2;strokeColor=#82b366;" edge="1" parent="1" source="MONITOR" target="UART_BLOCK">
          <mxGeometry relative="1" as="geometry">
            <Array as="points">
              <mxPoint x="260" y="510" />
              <mxPoint x="260" y="465" />
            </Array>
          </mxGeometry>
        </mxCell>
        
        <!-- EEPROM Connections -->
        <mxCell id="EEPROM_CONN" value="P0.4 (SCL)&#xa;P0.5 (SDA)&#xa;400kHz" style="edgeStyle=orthogonalEdgeStyle;rounded=0;orthogonalLoop=1;jettySize=auto;html=1;exitX=0;exitY=0.5;exitDx=0;exitDy=0;entryX=1;entryY=0.5;entryDx=0;entryDy=0;fontSize=9;labelPosition=center;verticalLabelPosition=middle;align=center;verticalAlign=middle;strokeWidth=2;strokeColor=#82b366;" edge="1" parent="1" source="EEPROM" target="I2C_BLOCK">
          <mxGeometry relative="1" as="geometry">
            <Array as="points">
              <mxPoint x="900" y="310" />
              <mxPoint x="900" y="360" />
            </Array>
          </mxGeometry>
        </mxCell>
        
        <!-- DAC Connections -->
        <mxCell id="DAC_CONN" value="P2.11 (SCK)&#xa;P0.9 (MOSI)&#xa;P0.2 (CS), 1MHz" style="edgeStyle=orthogonalEdgeStyle;rounded=0;orthogonalLoop=1;jettySize=auto;html=1;exitX=0;exitY=0.5;exitDx=0;exitDy=0;entryX=1;entryY=0.5;entryDx=0;entryDy=0;fontSize=9;labelPosition=center;verticalLabelPosition=middle;align=center;verticalAlign=middle;strokeWidth=2;strokeColor=#82b366;" edge="1" parent="1" source="DAC" target="SPI_BLOCK">
          <mxGeometry relative="1" as="geometry">
            <Array as="points">
              <mxPoint x="900" y="410" />
              <mxPoint x="900" y="440" />
            </Array>
          </mxGeometry>
        </mxCell>
        
        <!-- Internal MCU Bus Connections -->
        <mxCell id="GPIO_TO_CORE" value="" style="edgeStyle=orthogonalEdgeStyle;rounded=0;orthogonalLoop=1;jettySize=auto;html=1;exitX=1;exitY=0.5;exitDx=0;exitDy=0;entryX=0;entryY=0.25;entryDx=0;entryDy=0;strokeWidth=2;strokeColor=#d6b656;" edge="1" parent="1" source="GPIO_BLOCK" target="MCU_CORE">
          <mxGeometry relative="1" as="geometry" />
        </mxCell>
        
        <mxCell id="ADC_TO_CORE" value="" style="edgeStyle=orthogonalEdgeStyle;rounded=0;orthogonalLoop=1;jettySize=auto;html=1;exitX=1;exitY=0.5;exitDx=0;exitDy=0;entryX=0;entryY=0.5;entryDx=0;entryDy=0;strokeWidth=2;strokeColor=#d6b656;" edge="1" parent="1" source="ADC_BLOCK" target="MCU_CORE">
          <mxGeometry relative="1" as="geometry" />
        </mxCell>
        
        <mxCell id="UART_TO_CORE" value="" style="edgeStyle=orthogonalEdgeStyle;rounded=0;orthogonalLoop=1;jettySize=auto;html=1;exitX=1;exitY=0.5;exitDx=0;exitDy=0;entryX=0;entryY=0.75;entryDx=0;entryDy=0;strokeWidth=2;strokeColor=#d6b656;" edge="1" parent="1" source="UART_BLOCK" target="MCU_CORE">
          <mxGeometry relative="1" as="geometry" />
        </mxCell>
        
        <mxCell id="I2C_TO_CORE" value="" style="edgeStyle=orthogonalEdgeStyle;rounded=0;orthogonalLoop=1;jettySize=auto;html=1;exitX=0;exitY=0.5;exitDx=0;exitDy=0;entryX=1;entryY=0.25;entryDx=0;entryDy=0;strokeWidth=2;strokeColor=#d6b656;" edge="1" parent="1" source="I2C_BLOCK" target="MCU_CORE">
          <mxGeometry relative="1" as="geometry" />
        </mxCell>
        
        <mxCell id="SPI_TO_CORE" value="" style="edgeStyle=orthogonalEdgeStyle;rounded=0;orthogonalLoop=1;jettySize=auto;html=1;exitX=0;exitY=0.5;exitDx=0;exitDy=0;entryX=1;entryY=0.75;entryDx=0;entryDy=0;strokeWidth=2;strokeColor=#d6b656;" edge="1" parent="1" source="SPI_BLOCK" target="MCU_CORE">
          <mxGeometry relative="1" as="geometry" />
        </mxCell>
        
        <!-- Title -->
        <mxCell id="TITLE" value="TBSAR ECU Layer Architecture" style="text;html=1;strokeColor=none;fillColor=none;align=center;verticalAlign=middle;whiteSpace=wrap;rounded=0;fontSize=18;fontStyle=1;" vertex="1" parent="1">
          <mxGeometry x="480" y="100" width="280" height="30" as="geometry" />
        </mxCell>
        
        <!-- Legend - Updated -->
        <mxCell id="LEGEND_TITLE" value="Legend:" style="text;html=1;strokeColor=none;fillColor=none;align=left;verticalAlign=middle;whiteSpace=wrap;rounded=0;fontSize=12;fontStyle=1;" vertex="1" parent="1">
          <mxGeometry x="50" y="600" width="60" height="20" as="geometry" />
        </mxCell>
        
        <mxCell id="LEGEND_ECU" value="ECU Modules" style="rounded=1;whiteSpace=wrap;html=1;fontSize=10;fillColor=#d5e8d4;strokeColor=#82b366;" vertex="1" parent="1">
          <mxGeometry x="50" y="630" width="80" height="30" as="geometry" />
        </mxCell>
        
        <mxCell id="LEGEND_MCU_MAIN" value="MCU Core" style="rounded=1;whiteSpace=wrap;html=1;fontSize=10;fillColor=#f8cecc;strokeColor=#b85450;" vertex="1" parent="1">
          <mxGeometry x="150" y="630" width="80" height="30" as="geometry" />
        </mxCell>
        
        <mxCell id="LEGEND_PERIPH" value="MCU&#xa;Peripherals" style="rounded=1;whiteSpace=wrap;html=1;fontSize=10;fillColor=#fff2cc;strokeColor=#d6b656;" vertex="1" parent="1">
          <mxGeometry x="250" y="630" width="80" height="30" as="geometry" />
        </mxCell>
        
        <mxCell id="LEGEND_ARROWS" value="Data Flow" style="shape=singleArrow;whiteSpace=wrap;html=1;arrowWidth=0.4;arrowSize=0.4;fontSize=10;fillColor=#d5e8d4;strokeColor=#82b366;direction=east;" vertex="1" parent="1">
          <mxGeometry x="350" y="630" width="80" height="30" as="geometry" />
        </mxCell>
        
        <!-- Current Application Note -->
        <mxCell id="APP_NOTE" value="Current Application:&#xa;RGB Green LED Blink&#xa;500ms intervals" style="rounded=1;whiteSpace=wrap;html=1;fontSize=11;fontStyle=2;fillColor=#f8cecc;strokeColor=#b85450;" vertex="1" parent="1">
          <mxGeometry x="50" y="180" width="100" height="60" as="geometry" />
        </mxCell>
        
        <!-- Module Count - Updated -->
        <mxCell id="MODULE_COUNT" value="ECU Modules: 6&#xa;MCU Peripherals: 5&#xa;System Memory: 8.3KB" style="text;html=1;strokeColor=#b85450;fillColor=#f8cecc;align=center;verticalAlign=middle;whiteSpace=wrap;rounded=1;fontSize=10;fontStyle=2;" vertex="1" parent="1">
          <mxGeometry x="800" y="580" width="120" height="60" as="geometry" />
        </mxCell>
        
      </root>
    </mxGraphModel>
  </diagram>
</mxfile>